<?xml version="1.0" encoding="UTF-8"?>
<!-- Generator: Adobe Illustrator 22.0.1, SVG Export Plug-In . SVG Version: 6.00 Build 0)  -->
<svg xmlns="http://www.w3.org/2000/svg" xmlns:xlink="http://www.w3.org/1999/xlink" version="1.1" id="Capa_1" x="0px" y="0px" viewBox="0 0 453.3 146.4" style="enable-background:new 0 0 453.3 146.4;" xml:space="preserve">
<style type="text/css">
	.st0{fill:#004271;}
	.st1{fill:#F7323F;}
	.st2{fill:#4D89AA;}
</style>
<g>
	<g>
		<g>
			<path class="st0" d="M28.2,31.7l1.6,1.5c-2,1.8-4.1,2.7-6.4,2.7c-2.4,0-4.4-0.8-6.1-2.5c-1.7-1.7-2.5-3.7-2.5-6.1     s0.9-4.4,2.5-6.1c1.7-1.7,3.7-2.5,6.1-2.5c2.2,0,4.4,0.9,6.4,2.7l-1.6,1.5c-1.5-1.3-3.1-2-4.7-2c-1.8,0-3.3,0.6-4.5,1.9     c-1.3,1.3-1.9,2.8-1.9,4.6c0,1.8,0.6,3.3,1.9,4.6c1.3,1.3,2.8,1.9,4.5,1.9C25.1,33.7,26.7,33,28.2,31.7"></path>
			<polygon class="st0" points="52.1,18.8 52.1,21 45.1,21 45.1,26.1 52.1,26.1 52.1,28.3 45.1,28.3 45.1,33.5 52.1,33.5 52.1,35.7      42.9,35.7 42.9,18.8    "></polygon>
			<path class="st0" d="M69.6,30.3h-2v5.4h-2.2V18.8h4.8c1.4,0.2,2.5,0.7,3.4,1.7c1.1,1.1,1.7,2.5,1.7,4.1s-0.6,3-1.7,4.1     c-0.8,0.8-1.4,1.2-1.8,1.3l3.7,5.8h-2.6L69.6,30.3z M67.6,21v7.1h2c1,0,1.8-0.3,2.5-1s1-1.5,1-2.5s-0.3-1.8-1-2.5s-1.5-1-2.5-1     L67.6,21L67.6,21z"></path>
			<polygon class="st0" points="93.6,21 93.6,35.7 91.4,35.7 91.4,21 87.4,21 87.4,18.8 97.5,18.8 97.5,21    "></polygon>
			<rect x="110.3" y="18.8" class="st0" width="2.2" height="16.9"></rect>
			<polygon class="st0" points="134.6,18.8 134.6,21 128.6,21 128.6,26.1 134.6,26.1 134.6,28.3 128.6,28.3 128.6,35.7 126.4,35.7      126.4,18.8    "></polygon>
			<rect x="148.2" y="18.8" class="st0" width="2.2" height="16.9"></rect>
			<path class="st0" d="M177.3,31.7l1.6,1.5c-2,1.8-4.1,2.7-6.4,2.7c-2.4,0-4.4-0.8-6.1-2.5s-2.5-3.7-2.5-6.1s0.8-4.4,2.5-6.1     c1.7-1.7,3.7-2.5,6.1-2.5c2.2,0,4.4,0.9,6.4,2.7l-1.6,1.5c-1.5-1.3-3.1-2-4.7-2c-1.8,0-3.3,0.6-4.5,1.9c-1.3,1.3-1.9,2.8-1.9,4.6     c0,1.8,0.6,3.3,1.9,4.6c1.3,1.3,2.8,1.9,4.5,1.9C174.2,33.7,175.8,33,177.3,31.7"></path>
			<path class="st0" d="M197.9,18.8l6.2,16.9h-2.3l-2.2-6h-4.5l-2.2,6h-2.3l6.2-16.9H197.9z M198.8,27.5l-1.4-4l-1.4,4H198.8z"></path>
			<path class="st0" d="M229.4,31.7l1.6,1.5c-2,1.8-4.1,2.7-6.4,2.7c-2.4,0-4.4-0.8-6.1-2.5s-2.5-3.7-2.5-6.1s0.8-4.4,2.5-6.1     s3.7-2.5,6.1-2.5c2.2,0,4.4,0.9,6.4,2.7l-1.6,1.5c-1.5-1.3-3.1-2-4.7-2c-1.8,0-3.3,0.6-4.5,1.9c-1.3,1.3-1.9,2.8-1.9,4.6     c0,1.8,0.6,3.3,1.9,4.6c1.3,1.3,2.8,1.9,4.5,1.9C226.3,33.7,227.9,33,229.4,31.7"></path>
			<rect x="244.4" y="18.8" class="st0" width="2.2" height="16.9"></rect>
			<path class="st0" d="M274.9,21.1c1.7,1.7,2.5,3.7,2.5,6.1s-0.9,4.4-2.5,6.1c-1.7,1.7-3.7,2.5-6.1,2.5s-4.4-0.8-6.1-2.5     s-2.5-3.7-2.5-6.1s0.8-4.4,2.5-6.1s3.7-2.5,6.1-2.5C271.2,18.5,273.3,19.4,274.9,21.1 M268.8,20.8c-1.8,0-3.3,0.6-4.6,1.9     c-1.3,1.3-1.9,2.8-1.9,4.6c0,1.8,0.6,3.3,1.9,4.6c1.3,1.3,2.8,1.9,4.6,1.9c1.8,0,3.3-0.6,4.6-1.9c1.3-1.3,1.9-2.8,1.9-4.6     c0-1.8-0.6-3.3-1.9-4.6C272.1,21.4,270.6,20.8,268.8,20.8"></path>
			<polygon class="st0" points="290.9,18.8 292.9,18.8 299.9,30.9 299.9,18.8 302.1,18.8 302.1,35.7 300.2,35.7 293.1,23.5      293.1,35.7 290.9,35.7    "></polygon>
			<polygon class="st0" points="324.9,18.8 324.9,21 317.9,21 317.9,26.1 324.9,26.1 324.9,28.3 317.9,28.3 317.9,33.5 324.9,33.5      324.9,35.7 315.7,35.7 315.7,18.8    "></polygon>
			<path class="st0" d="M342.6,27c-1.2-0.4-2.2-1-2.9-1.7c-0.7-0.7-1.1-1.7-1.1-2.8c0-1.1,0.4-2,1.2-2.8c0.8-0.8,1.7-1.2,2.8-1.2     c1.1,0,2,0.4,2.8,1.2c0.4,0.4,0.8,1.1,1.1,2l-2,0.8c-0.2-0.7-0.5-1.1-0.7-1.3c-0.3-0.3-0.8-0.5-1.2-0.5c-0.5,0-0.9,0.2-1.3,0.5     c-0.3,0.3-0.5,0.8-0.5,1.3s0.2,0.9,0.5,1.3c0.4,0.4,0.9,0.7,1.6,1.1c1.3,0.4,2.4,1.1,3.4,2c1,1,1.6,2.3,1.6,3.7     c0,1.5-0.5,2.7-1.6,3.7c-1,1-2.3,1.5-3.7,1.5c-1.5,0-2.7-0.5-3.7-1.6c-0.8-0.8-1.3-2-1.6-3.4l2.1-0.8c0.1,1.2,0.5,2.1,1,2.7     c0.6,0.6,1.3,0.9,2.2,0.9c0.9,0,1.6-0.3,2.2-0.9s0.9-1.3,0.9-2.2c0-0.9-0.3-1.6-0.9-2.2C344.1,27.8,343.4,27.4,342.6,27"></path>
			<path class="st0" d="M70.9,105.3c-7,10.1-18.7,16.7-32,16.7C17.4,122,0,104.6,0,83.1s17.4-38.9,38.9-38.9c12,0,22.8,5.4,29.9,14     l-8.7,7.9c-5-6.2-12.6-10.2-21.2-10.2c-15,0-27.2,12.2-27.2,27.2s12.2,27.2,27.2,27.2c9.2,0,17.3-4.6,22.3-11.6L70.9,105.3z"></path>
			<polygon class="st0" points="74,45.9 120.9,45.9 120.9,58.1 84.9,58.1 84.9,75.5 117.1,75.5 117.1,87.6 84.9,87.6 84.9,108.7      122.3,108.7 122.3,120.8 74,120.8    "></polygon>
			<path class="st0" d="M179.5,89.8c-2.1,3.4-4.7,6-8.2,7.9c3.6,7.2,7.7,15.7,11.4,23.1h-12.3l-9.7-20.3h-18.5v20.3h-10.9V45.9h29.8     c6.2,0,12.1,2.9,16.3,8c4,5,6.5,11.6,6.5,19.5C183.8,79.6,182.3,85.3,179.5,89.8 M142.1,88.3h19.1c3.4,0,6.6-1.7,8.5-4.5     c2.1-2.9,3.2-6.7,3.2-10.5c0-3.9-1.1-7.6-3-10.1c-2-3.1-5.5-5.1-9.3-5.1H142v30.2H142.1z"></path>
			<polygon class="st0" points="185.2,45.9 240.6,45.9 240.6,57.9 218.2,57.9 218.2,120.8 207.6,120.8 207.6,57.9 185.2,57.9    "></polygon>
			<polygon class="st0" points="301.3,45.9 301.3,120.8 290.6,120.8 290.6,86.7 258.9,86.7 258.9,120.8 248.1,120.8 248.1,45.9      258.9,45.9 258.9,74.8 290.6,74.8 290.6,45.9    "></polygon>
			<rect x="311.3" y="45.9" class="st0" width="10.6" height="74.9"></rect>
			<path class="st0" d="M367.7,45.9h-11.6l-26.7,74.9h11.4l4.9-13.7h32.2L383,121h11.8L367.7,45.9z M349.8,94.9l11.3-35.6h1.2     l11.6,35.6L349.8,94.9L349.8,94.9z"></path>
			<path class="st1" d="M357,16.8c0.3-0.1,0.5-0.1,0.8-0.2l0,0c2.8-0.4,5.9-0.8,8.7-0.9c1.9-0.1,3.8,0.1,5.7,0.2L376.5,0     c5.6,0.5,11.1,1.6,16.3,3.2L391,19.6c6.2,2.1,11.9,5.1,17.2,8.8l12-11.2c4.4,3.4,8.5,7.2,12.2,11.4l-9.6,12.7     c2.8,3.5,5.3,7.3,7.4,11.3c0,0.1,0.1,0.1,0.1,0.2c0,0,0,0.1,0.1,0.1c0.2,0.3,0.3,0.7,0.5,1c0.3,0.5,0.5,1,0.8,1.6     c0.1,0.2,0.2,0.4,0.3,0.6c0.3,0.6,0.6,1.3,0.8,1.9l16.2-3.1c2,5.3,3.4,10.6,4.3,16l-15.5,5.6c0.8,6.5,0.6,13-0.4,19.3l15.3,5.9     c-1.1,5.5-2.8,10.8-4.9,16l-15.9-3.4c-1,2.5-1.9,4.7-3.2,6.8h-26.1c3.3-3.2,6.2-6.9,8.5-11l0,0c5.3-9.4,7.3-20.4,6.1-30.8     c-0.3-2.4-0.8-4.9-1.5-7.3c-6.6-22.9-28.6-37.3-51.5-35.1L357,16.8z"></path>
		</g>
	</g>
	<g>
		<path class="st2" d="M19.2,146.2l-5.1-14.1H16l3.7,10.1l3.7-10.1h1.9l-5.1,14.1H19.2z"></path>
		<path class="st2" d="M43.5,132.1l5.1,14.1h-1.9l-1.8-5h-3.7l-1.8,5h-1.9l5.1-14.1H43.5z M44.2,139.4l-1.2-3.3l-1.2,3.3H44.2z"></path>
		<path class="st2" d="M62.1,146.2v-14.1h1.8v12.2h5v1.8h-6.8V146.2z"></path>
		<path class="st2" d="M84.7,132.1v14.1h-1.8v-14.1H84.7z"></path>
		<path class="st2" d="M100.6,132.1c2.3,0,4.1,0.7,5.3,1.9c1.4,1.4,2.1,3.1,2.1,5.1s-0.7,3.7-2.1,5.1c-1.3,1.3-3.1,1.9-5.3,1.9h-1.3    V132h1.3V132.1z M101,134v10.4c1.4,0,2.6-0.5,3.6-1.4c1-1,1.6-2.3,1.6-3.8s-0.5-2.7-1.6-3.8C103.7,134.5,102.5,134,101,134z"></path>
		<path class="st2" d="M126.7,132.1l5.1,14.1h-1.9l-1.8-5h-3.7l-1.8,5h-1.9l5.1-14.1H126.7z M127.4,139.4l-1.2-3.3l-1.2,3.3H127.4z"></path>
		<path class="st2" d="M147.4,132.1l4.6,7.9l4.5-7.9h1.7v14.1h-1.8V136l-4.4,7.6l-4.4-7.6v10.2h-1.9v-14.1H147.4z"></path>
		<path class="st2" d="M185,134.1c1.4,1.4,2.1,3.1,2.1,5.1s-0.7,3.7-2.1,5.1c-1.4,1.4-3.1,2.1-5.1,2.1s-3.7-0.7-5.1-2.1    c-1.4-1.4-2.1-3.1-2.1-5.1s0.7-3.7,2.1-5.1c1.4-1.4,3.1-2.1,5.1-2.1S183.6,132.7,185,134.1z M179.9,133.8c-1.5,0-2.7,0.5-3.8,1.6    c-1,1-1.6,2.3-1.6,3.8s0.5,2.7,1.6,3.8s2.3,1.6,3.8,1.6s2.7-0.5,3.8-1.6s1.6-2.3,1.6-3.8s-0.5-2.7-1.6-3.8    S181.4,133.8,179.9,133.8z"></path>
		<path class="st2" d="M204.8,139c-1-0.3-1.8-0.8-2.4-1.4c-0.6-0.6-0.9-1.4-0.9-2.3s0.3-1.7,1-2.3c0.7-0.6,1.4-1,2.3-1    s1.7,0.3,2.3,1c0.4,0.4,0.7,0.9,0.9,1.7l-1.7,0.7c-0.2-0.5-0.4-0.9-0.5-1.1c-0.3-0.3-0.6-0.4-1-0.4s-0.8,0.1-1,0.4    c-0.3,0.3-0.4,0.6-0.4,1s0.1,0.8,0.4,1c0.3,0.3,0.8,0.6,1.3,0.9c1.1,0.4,2,0.9,2.8,1.7c0.9,0.8,1.3,1.9,1.3,3.1s-0.4,2.2-1.3,3.1    c-0.9,0.9-1.9,1.3-3.1,1.3c-1.2,0-2.2-0.4-3.1-1.3c-0.7-0.7-1.1-1.6-1.3-2.8l1.8-0.6c0.1,1,0.4,1.8,0.8,2.2    c0.5,0.5,1.1,0.8,1.8,0.8c0.7,0,1.3-0.3,1.8-0.8s0.8-1.1,0.8-1.8c0-0.7-0.3-1.3-0.8-1.8C206.1,139.7,205.5,139.3,204.8,139z"></path>
		<path class="st2" d="M244.5,134v12.2h-1.8V134h-3.3v-1.8h8.4v1.8H244.5z"></path>
		<path class="st2" d="M269,132.1h1.8v9.9c-0.2,1.1-0.6,2.1-1.4,2.9c-0.9,0.9-2.1,1.4-3.4,1.4s-2.4-0.5-3.4-1.4    c-0.9-0.9-1.4-2.1-1.4-3.4v-9.4h1.8v9.4c0,0.8,0.3,1.5,0.9,2.1s1.3,0.9,2.1,0.9c0.8,0,1.5-0.3,2.1-0.9c0.6-0.6,0.9-1.3,0.9-2.1    V132.1z"></path>
		<path class="st2" d="M288.7,139c-1-0.3-1.8-0.8-2.4-1.4s-0.9-1.4-0.9-2.3s0.3-1.7,1-2.3c0.6-0.6,1.4-1,2.3-1s1.7,0.3,2.3,1    c0.4,0.4,0.7,0.9,0.9,1.7l-1.7,0.7c-0.2-0.5-0.4-0.9-0.5-1.1c-0.3-0.3-0.6-0.4-1-0.4s-0.8,0.1-1,0.4c-0.3,0.3-0.4,0.6-0.4,1    s0.1,0.8,0.4,1c0.3,0.3,0.8,0.6,1.3,0.9c1.1,0.4,2,0.9,2.8,1.7c0.9,0.8,1.3,1.9,1.3,3.1s-0.4,2.2-1.3,3.1    c-0.9,0.9-1.9,1.3-3.1,1.3s-2.2-0.4-3.1-1.3c-0.7-0.7-1.1-1.6-1.3-2.8l1.8-0.6c0.1,1,0.4,1.8,0.8,2.2c0.5,0.5,1.1,0.8,1.8,0.8    s1.3-0.3,1.8-0.8s0.8-1.1,0.8-1.8c0-0.7-0.3-1.3-0.8-1.8C290,139.7,289.4,139.3,288.7,139z"></path>
		<path class="st2" d="M326.3,141.7v4.5h-1.8v-14.1h4c1.1,0.2,2.1,0.6,2.9,1.4c0.9,0.9,1.4,2.1,1.4,3.4s-0.5,2.5-1.4,3.4    s-2.1,1.4-3.4,1.4L326.3,141.7L326.3,141.7z M326.3,134v5.9h1.7c0.8,0,1.5-0.3,2.1-0.9c0.6-0.6,0.9-1.3,0.9-2.1    c0-0.8-0.3-1.5-0.9-2.1s-1.3-0.9-2.1-0.9h-1.7V134z"></path>
		<path class="st2" d="M350.3,132.1l5.1,14.1h-1.9l-1.8-5H348l-1.8,5h-1.9l5.1-14.1H350.3z M351,139.4l-1.2-3.3l-1.2,3.3H351z"></path>
		<path class="st2" d="M372.9,139c-1-0.3-1.8-0.8-2.4-1.4s-0.9-1.4-0.9-2.3s0.3-1.7,1-2.3c0.6-0.6,1.4-1,2.3-1s1.7,0.3,2.3,1    c0.4,0.4,0.7,0.9,0.9,1.7l-1.7,0.7c-0.2-0.5-0.4-0.9-0.5-1.1c-0.3-0.3-0.6-0.4-1-0.4s-0.8,0.1-1,0.4c-0.3,0.3-0.4,0.6-0.4,1    s0.1,0.8,0.4,1c0.3,0.3,0.8,0.6,1.3,0.9c1.1,0.4,2,0.9,2.8,1.7c0.9,0.8,1.3,1.9,1.3,3.1s-0.4,2.2-1.3,3.1    c-0.9,0.9-1.9,1.3-3.1,1.3s-2.2-0.4-3.1-1.3c-0.7-0.7-1.1-1.6-1.3-2.8l1.8-0.6c0.1,1,0.4,1.8,0.8,2.2c0.5,0.5,1.1,0.8,1.8,0.8    s1.3-0.3,1.8-0.8s0.8-1.1,0.8-1.8c0-0.7-0.3-1.3-0.8-1.8C374.2,139.7,373.6,139.3,372.9,139z"></path>
		<path class="st2" d="M402.8,134.1c1.4,1.4,2.1,3.1,2.1,5.1s-0.7,3.7-2.1,5.1c-1.4,1.4-3.1,2.1-5.1,2.1s-3.7-0.7-5.1-2.1    c-1.4-1.4-2.1-3.1-2.1-5.1s0.7-3.7,2.1-5.1c1.4-1.4,3.1-2.1,5.1-2.1S401.4,132.7,402.8,134.1z M397.7,133.8    c-1.5,0-2.7,0.5-3.8,1.6c-1,1-1.6,2.3-1.6,3.8s0.5,2.7,1.6,3.8s2.3,1.6,3.8,1.6s2.7-0.5,3.8-1.6c1-1,1.6-2.3,1.6-3.8    s-0.5-2.7-1.6-3.8C400.4,134.3,399.2,133.8,397.7,133.8z"></path>
		<path class="st2" d="M422.6,139c-1-0.3-1.8-0.8-2.4-1.4s-0.9-1.4-0.9-2.3s0.3-1.7,1-2.3c0.6-0.6,1.4-1,2.3-1s1.7,0.3,2.3,1    c0.4,0.4,0.7,0.9,0.9,1.7l-1.7,0.7c-0.2-0.5-0.4-0.9-0.5-1.1c-0.3-0.3-0.6-0.4-1-0.4s-0.8,0.1-1,0.4c-0.3,0.3-0.4,0.6-0.4,1    s0.1,0.8,0.4,1c0.3,0.3,0.8,0.6,1.3,0.9c1.1,0.4,2,0.9,2.8,1.7c0.9,0.8,1.3,1.9,1.3,3.1s-0.4,2.2-1.3,3.1    c-0.9,0.9-1.9,1.3-3.1,1.3s-2.2-0.4-3.1-1.3c-0.7-0.7-1.1-1.6-1.3-2.8l1.8-0.6c0.1,1,0.4,1.8,0.8,2.2c0.5,0.5,1.1,0.8,1.8,0.8    s1.3-0.3,1.8-0.8s0.8-1.1,0.8-1.8c0-0.7-0.3-1.3-0.8-1.8C423.9,139.7,423.3,139.3,422.6,139z"></path>
	</g>
</g>
</svg>
